<svg xmlns="http://www.w3.org/2000/svg" class="icon icon-cart" width="24" height="20" viewBox="0 0 24 20" fill="none">
<path d="M10.9733 17.9842C10.9733 19.0978 10.0709 20.0001 8.95732 20.0001C7.84374 20.0001 6.94141 19.0978 6.94141 17.9842C6.94141 16.8706 7.84374 15.9683 8.95732 15.9683C10.0709 15.9683 10.9733 16.8706 10.9733 17.9842Z" fill="#07478A"/>
<path d="M19.1431 17.9842C19.1431 19.0978 18.2408 20.0001 17.1272 20.0001C16.0136 20.0001 15.1113 19.0978 15.1113 17.9842C15.1113 16.8706 16.0136 15.9683 17.1272 15.9683C18.2408 15.9683 19.1431 16.8706 19.1431 17.9842Z" fill="#07478A"/>
<path d="M22.0613 3.12997H9.51491V5.25199H20.7351L19.4619 10.6631C19.3842 11.0141 19.1895 11.3286 18.9101 11.555C18.6306 11.7815 18.2829 11.9065 17.9234 11.9098H9.22313C8.85888 11.9122 8.50506 11.79 8.21991 11.5631C7.93524 11.3362 7.73677 11.0184 7.65814 10.6631L5.43003 0.822281C5.37603 0.588291 5.24435 0.379879 5.05631 0.230674C4.86873 0.0809966 4.63569 0 4.39554 0H0.947266V2.12202H3.54674L5.58918 11.1406C5.77154 11.9662 6.23194 12.7037 6.89365 13.2304C7.55536 13.7566 8.37764 14.0399 9.22313 14.0323H17.9234C18.7642 14.0342 19.5803 13.7481 20.2368 13.2223C20.8933 12.6966 21.3494 11.9619 21.5308 11.1411L23.0958 4.43018C23.1688 4.11519 23.0935 3.78363 22.8922 3.53069C22.6908 3.27776 22.3849 3.12997 22.0613 3.12997Z" fill="#07478A"/>
</svg>